<svg width="52" height="52" viewBox="0 0 52 52" fill="none" xmlns="http://www.w3.org/2000/svg">
<path d="M26.1706 0.460941C11.8086 0.527941 0.224625 12.2189 0.286625 26.5759C0.353625 40.9339 12.0446 52.5229 26.4016 52.4609C40.7596 52.3929 52.3486 40.7029 52.2866 26.3449C52.2196 11.9829 40.5286 0.398941 26.1706 0.460941ZM22.8776 25.1849C22.2617 25.194 21.6501 25.0805 21.0785 24.851C20.5068 24.6216 19.9865 24.2807 19.5477 23.8484C19.109 23.416 18.7606 22.9007 18.5227 22.3325C18.2849 21.7643 18.1625 21.1544 18.1625 20.5384C18.1625 19.9225 18.2849 19.3126 18.5227 18.7444C18.7606 18.1761 19.109 17.6609 19.5477 17.2285C19.9865 16.7961 20.5068 16.4553 21.0785 16.2259C21.6501 15.9964 22.2617 15.8829 22.8776 15.8919C24.11 15.8919 25.2918 16.3815 26.1632 17.2529C27.0346 18.1243 27.5241 19.3061 27.5241 20.5384C27.5241 21.7708 27.0346 22.9526 26.1632 23.824C25.2918 24.6954 24.11 25.1849 22.8776 25.1849ZM26.5846 30.2119L26.6086 30.1819L26.6336 30.1539C27.9626 31.0109 29.4736 31.3089 30.9856 31.3579C32.5217 31.4037 34.0581 31.2763 35.5656 30.9779C37.0885 30.6601 38.5778 30.1987 40.0136 29.5999C40.8282 29.2723 41.6223 28.896 42.3916 28.4729C42.3966 28.4689 42.4016 28.4689 42.4066 28.4629C42.8836 28.1749 43.3506 27.8759 43.8076 27.5629C43.9086 27.4909 44.0046 27.4189 44.0966 27.3419L44.1066 27.3559L44.1446 27.4049C42.9746 28.4689 41.5836 29.2579 40.1676 29.9559C38.7339 30.6364 37.2397 31.1814 35.7046 31.5839C34.1686 31.9789 32.5646 32.2819 30.9426 32.1329C29.3436 31.9829 27.6586 31.4249 26.5846 30.2119ZM38.5156 25.1849C38.5156 24.6259 38.9636 24.1789 39.5176 24.1739C40.0766 24.1739 40.5236 24.6219 40.5286 25.1749C40.5286 25.7289 40.0806 26.1859 39.5276 26.1859C39.3954 26.187 39.2643 26.1619 39.1418 26.1121C39.0193 26.0623 38.9079 25.9887 38.8139 25.8957C38.72 25.8027 38.6453 25.692 38.5943 25.57C38.5433 25.448 38.5159 25.3172 38.5156 25.1849ZM30.5526 50.1249C29.5466 43.0859 35.6896 36.1959 39.1566 32.6719C39.9416 31.8719 41.1596 30.7699 42.2906 29.5999C46.7876 25.3969 47.6836 20.3699 38.4776 17.8569C36.7346 17.3509 34.9246 16.6339 33.0946 15.9119C33.0386 15.7491 32.9728 15.5899 32.8976 15.4349C32.6856 15.0739 32.3196 14.6549 31.7606 14.1829C30.5616 13.1429 28.3186 13.1719 26.3776 13.6289C24.2306 13.1239 22.1176 12.9459 20.0806 13.4319C11.1776 15.8819 9.74762 20.2259 9.40062 25.4589C8.92962 31.1119 8.65462 35.3249 6.51162 40.1389C3.74537 36.1527 2.2578 31.419 2.24662 26.5669C2.18862 13.2919 12.9016 2.47794 26.1806 2.41894C39.4606 2.36194 50.2686 13.0749 50.3316 26.3539C50.3796 38.2129 41.8386 48.1069 30.5516 50.1239L30.5526 50.1249Z" fill="black"/>
</svg>
