<svg width="47" height="47" viewBox="0 0 47 47" fill="none" xmlns="http://www.w3.org/2000/svg">
<g clip-path="url(#clip0_252_39)">
<path d="M23.6263 1.3353C11.1612 1.39345 1.10717 11.5404 1.16098 24.0011C1.21913 36.4628 11.366 46.5212 23.8268 46.4674C36.2885 46.4084 46.3469 36.2623 46.2931 23.8007C46.2349 11.3355 36.088 1.28149 23.6263 1.3353ZM20.7683 22.7939C20.2337 22.8017 19.7029 22.7032 19.2067 22.504C18.7106 22.3049 18.259 22.0091 17.8782 21.6338C17.4974 21.2586 17.195 20.8113 16.9886 20.3182C16.7822 19.825 16.6759 19.2957 16.6759 18.7611C16.6759 18.2264 16.7822 17.6971 16.9886 17.2039C17.195 16.7108 17.4974 16.2635 17.8782 15.8883C18.259 15.513 18.7106 15.2172 19.2067 15.0181C19.7029 14.8189 20.2337 14.7204 20.7683 14.7282C21.8378 14.7282 22.8636 15.1531 23.6199 15.9094C24.3762 16.6657 24.8011 17.6915 24.8011 18.7611C24.8011 19.8306 24.3762 20.8564 23.6199 21.6127C22.8636 22.369 21.8378 22.7939 20.7683 22.7939ZM23.9857 27.1569L24.0065 27.1309L24.0282 27.1066C25.1817 27.8504 26.4931 28.109 27.8054 28.1516C29.1386 28.1913 30.4721 28.0807 31.7805 27.8218C33.1022 27.5459 34.3948 27.1454 35.641 26.6258C36.348 26.3414 37.0372 26.0148 37.7049 25.6476C37.7093 25.6441 37.7136 25.6441 37.718 25.6389C38.132 25.389 38.5373 25.1295 38.9339 24.8578C39.0216 24.7953 39.1049 24.7328 39.1848 24.666L39.1934 24.6781L39.2264 24.7207C38.2109 25.6441 37.0037 26.3289 35.7747 26.9347C34.5303 27.5253 33.2335 27.9983 31.9011 28.3477C30.568 28.6905 29.1759 28.9535 27.7681 28.8242C26.3803 28.694 24.9178 28.2097 23.9857 27.1569ZM34.3409 22.7939C34.3409 22.3087 34.7297 21.9207 35.2105 21.9164C35.6957 21.9164 36.0837 22.3052 36.088 22.7852C36.088 23.266 35.6992 23.6627 35.2192 23.6627C35.1045 23.6636 34.9907 23.6418 34.8843 23.5986C34.778 23.5553 34.6813 23.4915 34.5998 23.4108C34.5182 23.33 34.4534 23.234 34.4092 23.1281C34.3649 23.0222 34.3411 22.9086 34.3409 22.7939ZM27.4296 44.4399C26.5565 38.3306 31.8881 32.3506 34.8972 29.292C35.5785 28.5977 36.6357 27.6412 37.6173 26.6258C41.5203 22.9779 42.298 18.6148 34.3079 16.4337C32.7951 15.9945 31.2242 15.3722 29.6359 14.7456C29.5872 14.6043 29.5301 14.4661 29.4649 14.3316C29.2809 14.0183 28.9632 13.6546 28.478 13.245C27.4374 12.3423 25.4906 12.3675 23.806 12.7641C21.9426 12.3258 20.1086 12.1713 18.3407 12.5931C10.6135 14.7196 9.37242 18.4898 9.07125 23.0317C8.66245 27.9381 8.42377 31.5946 6.56381 35.7728C4.16291 32.3131 2.87181 28.2045 2.86211 23.9933C2.81177 12.4716 12.1099 3.0859 23.635 3.03469C35.1611 2.98522 44.5416 12.2833 44.5963 23.8085C44.6379 34.1012 37.225 42.6884 27.4287 44.439L27.4296 44.4399Z" fill="black"/>
<path d="M23.6055 18.7988C23.6149 19.1773 23.5484 19.5539 23.4101 19.9063C23.2717 20.2587 23.0642 20.5799 22.7998 20.8509C22.5354 21.1219 22.2195 21.3373 21.8706 21.4843C21.5217 21.6314 21.1469 21.7071 20.7683 21.7071C20.3897 21.7071 20.0149 21.6314 19.666 21.4843C19.3171 21.3373 19.0012 21.1219 18.7368 20.8509C18.4724 20.5799 18.2649 20.2587 18.1265 19.9063C17.9881 19.5539 17.9217 19.1773 17.931 18.7988C17.9494 18.0585 18.2563 17.3546 18.7864 16.8375C19.3165 16.3203 20.0277 16.0309 20.7683 16.0309C21.5088 16.0309 22.2201 16.3203 22.7502 16.8375C23.2803 17.3546 23.5872 18.0585 23.6055 18.7988Z" fill="black"/>
</g>
<defs>
<clipPath id="clip0_252_39">
<rect width="46" height="46" fill="white" transform="translate(0.334717 0.509033)"/>
</clipPath>
</defs>
</svg>
