<svg width="127" height="119" viewBox="0 0 127 119" fill="none" xmlns="http://www.w3.org/2000/svg">
<path fill-rule="evenodd" clip-rule="evenodd" d="M113.157 74.7441C115.044 68.3961 111.415 61.6955 105.067 59.808C102.243 58.9684 99.2762 59.1983 96.624 60.4228C90.4591 53.2869 81.2129 47.1967 70.1054 43.5342L83.9348 22.1209L99.8398 30.2542C99.8218 30.3135 99.7993 30.3701 99.7769 30.4267L99.7768 30.4268C99.7475 30.5006 99.7182 30.5743 99.699 30.6537C98.7121 34.721 101.218 38.8322 105.285 39.8192C109.352 40.806 113.464 38.3002 114.451 34.2331C115.438 30.1658 112.932 26.0546 108.865 25.0677C106.238 24.4305 103.608 25.2633 101.798 27.0183L101.792 27.0141L82.6263 17.2135L66.3407 42.4078C55.0187 39.3674 43.9202 39.3892 34.828 41.979C33.2749 39.5475 30.9363 37.7669 28.1444 36.9368C21.7965 35.0494 15.0957 38.6784 13.2082 45.0267C12.0408 48.9531 12.9856 53.1748 15.6308 56.2604C15.0903 57.3502 14.63 58.4829 14.2779 59.6672C9.33695 76.2849 25.4607 95.7949 50.2232 103.157C74.9857 110.52 99.1494 102.988 104.09 86.371C104.432 85.2209 104.663 84.0566 104.808 82.8838C108.794 81.7876 111.971 78.7323 113.157 74.7441ZM35.9593 62.7013C35.0834 61.0841 35.6843 59.0631 37.3015 58.1873C38.9186 57.3114 40.9396 57.9123 41.8155 59.5294L43.8517 63.2888L47.6111 61.2526C49.2282 60.3767 51.2492 60.9776 52.1251 62.5947C53.001 64.2119 52.4001 66.2329 50.783 67.1088L47.0236 69.145L49.0597 72.9043C49.9356 74.5214 49.3347 76.5424 47.7176 77.4183C46.1005 78.2942 44.0795 77.6933 43.2036 76.0762L41.1674 72.3168L37.408 74.353C35.7909 75.2289 33.7699 74.628 32.894 73.0109C32.0181 71.3937 32.619 69.3727 34.2362 68.4968L37.9955 66.4607L35.9593 62.7013ZM69.715 72.7377C68.8391 71.1206 69.44 69.0996 71.0571 68.2237C72.6743 67.3478 74.6953 67.9487 75.5712 69.5659L77.6073 73.3252L81.3667 71.2891C82.9838 70.4132 85.0048 71.0141 85.8807 72.6312C86.7566 74.2483 86.1557 76.2693 84.5386 77.1452L80.7792 79.1814L82.8154 82.9408C83.6913 84.5579 83.0904 86.5789 81.4733 87.4548C79.8561 88.3307 77.8351 87.7298 76.9592 86.1127L74.923 82.3533L71.1637 84.3895C69.5465 85.2654 67.5255 84.6645 66.6496 83.0473C65.7738 81.4302 66.3747 79.4092 67.9918 78.5333L71.7512 76.4971L69.715 72.7377Z" fill="black"/>
</svg>
