<svg width="87" height="86" viewBox="0 0 87 86" fill="none" xmlns="http://www.w3.org/2000/svg">
<path fill-rule="evenodd" clip-rule="evenodd" d="M69.4295 23.3038C66.8745 20.0533 62.1512 19.4874 58.9007 22.0424C57.4548 23.1789 56.5025 24.7738 56.1704 26.567C50.3111 27.1365 43.8739 29.6534 38.003 33.9943L32.0749 19.2264L41.9539 14.0523C41.9776 14.0827 41.9983 14.1146 42.019 14.1464L42.0191 14.1464L42.0191 14.1465L42.0191 14.1465C42.0462 14.1881 42.0732 14.2296 42.1068 14.268C43.824 16.2373 46.8226 16.4423 48.7919 14.725C50.7611 13.0079 50.9661 10.0091 49.249 8.03999C47.5318 6.07074 44.5332 5.8657 42.564 7.58289C41.2925 8.69163 40.7686 10.3325 41.0105 11.8878L41.0065 11.889L29.1021 18.1242L36.0718 35.5069C30.4406 40.1813 26.4508 45.8456 24.493 51.4133C22.6938 51.3283 20.9432 51.8783 19.5137 53.0019C16.2633 55.5568 15.6973 60.2802 18.2523 63.5307C19.8326 65.5412 22.3249 66.5816 24.8511 66.3458C25.2117 67.0141 25.6231 67.6571 26.0997 68.2635C32.788 76.7723 48.5441 75.5879 61.2234 65.6216C73.9027 55.6552 78.7751 40.6247 72.0869 32.116C71.6241 31.5271 71.114 30.9895 70.5682 30.4933C71.4468 28.0662 71.0346 25.3458 69.4295 23.3038ZM35.4622 58.3072C34.3222 58.1706 33.5088 57.1358 33.6454 55.9959C33.782 54.8559 34.8168 54.0425 35.9567 54.1791L38.6069 54.4966L38.9244 51.8464C39.0609 50.7065 40.0958 49.8931 41.2357 50.0296C42.3757 50.1662 43.1891 51.201 43.0525 52.341L42.735 54.9911L45.385 55.3086C46.525 55.4451 47.3384 56.48 47.2018 57.6199C47.0652 58.7599 46.0304 59.5733 44.8905 59.4367L42.2405 59.1192L41.923 61.7692C41.7864 62.9092 40.7516 63.7226 39.6117 63.586C38.4717 63.4495 37.6583 62.4146 37.7949 61.2747L38.1123 58.6247L35.4622 58.3072ZM52.7464 44.7211C51.6064 44.5846 50.793 43.5497 50.9296 42.4098C51.0661 41.2698 52.1009 40.4564 53.2409 40.593L55.891 40.9105L56.2084 38.2605C56.345 37.1205 57.3798 36.3071 58.5198 36.4437C59.6597 36.5802 60.4731 37.6151 60.3366 38.755L60.0191 41.405L62.6692 41.7225C63.8091 41.8591 64.6225 42.8939 64.486 44.0338C64.3494 45.1738 63.3146 45.9872 62.1746 45.8506L59.5246 45.5331L59.2071 48.1833C59.0705 49.3232 58.0357 50.1366 56.8957 50.0001C55.7558 49.8635 54.9424 48.8287 55.0789 47.6887L55.3964 45.0386L52.7464 44.7211Z" fill="black"/>
</svg>
