<svg width="53" height="38" viewBox="0 0 53 38" fill="none" xmlns="http://www.w3.org/2000/svg">
<path fill-rule="evenodd" clip-rule="evenodd" d="M46.895 17.745C50.2613 17.745 53 20.5219 53 23.935C53 26.0792 51.8951 28.055 50.1115 29.1821C50.2112 29.7826 50.2672 30.3917 50.2672 31.0101C50.2672 33.5116 49.4298 35.8825 47.9358 38H4.97331C3.4793 35.8826 2.64195 33.5116 2.64195 31.0101C2.64195 30.3733 2.70215 29.7462 2.80762 29.1284C1.07189 27.9927 0 26.046 0 23.935C0 20.5218 2.73895 17.745 6.10504 17.745C7.58551 17.745 8.98283 18.2811 10.0917 19.2541C14.1464 16.6394 19.5504 14.9985 25.507 14.8375L29.7917 0L40.5492 2.0263L40.5525 2.02761C41.1801 0.894789 42.3411 0.0970399 43.7129 0.0261095C45.8374 -0.0837673 47.6538 1.57907 47.7621 3.7332C47.8705 5.88722 46.2304 7.72891 44.1059 7.83879C41.9812 7.94866 40.1649 6.28582 40.0565 4.13169C40.0544 4.08962 40.058 4.04887 40.0616 4.00809L40.0616 4.00802C40.0643 3.9768 40.0671 3.94556 40.0673 3.91368L31.1401 2.23202L27.5043 14.841C33.4465 15.0187 38.8335 16.6692 42.8707 19.2887C43.9855 18.2943 45.3975 17.745 46.895 17.745ZM13.6448 28.0366C12.9838 27.3562 12.9838 26.2532 13.6448 25.5728C14.3058 24.8925 15.3775 24.8925 16.0385 25.5728L17.5751 27.1544L19.1117 25.5728C19.7726 24.8925 20.8443 24.8925 21.5053 25.5728C22.1663 26.2532 22.1663 27.3562 21.5053 28.0366L19.9687 29.6181L21.5054 31.1998C22.1664 31.8801 22.1664 32.9832 21.5054 33.6635C20.8444 34.3439 19.7727 34.3439 19.1117 33.6635L17.5751 32.0819L16.0384 33.6635C15.3774 34.3439 14.3057 34.3439 13.6447 33.6635C12.9837 32.9832 12.9837 31.8801 13.6447 31.1998L15.1814 29.6181L13.6448 28.0366ZM31.5447 28.0366C30.8837 27.3562 30.8837 26.2532 31.5447 25.5728C32.2057 24.8925 33.2774 24.8925 33.9384 25.5728L35.475 27.1544L37.0115 25.5728C37.6725 24.8925 38.7442 24.8925 39.4052 25.5728C40.0662 26.2532 40.0662 27.3562 39.4052 28.0366L37.8686 29.6181L39.4053 31.1998C40.0663 31.8801 40.0663 32.9832 39.4053 33.6635C38.7443 34.3439 37.6726 34.3439 37.0116 33.6635L35.475 32.0819L33.9383 33.6635C33.2773 34.3439 32.2056 34.3439 31.5446 33.6635C30.8836 32.9832 30.8836 31.8801 31.5446 31.1998L33.0813 29.6181L31.5447 28.0366Z" fill="#FF0000"/>
</svg>
