<svg width="50" height="50" viewBox="0 0 50 50" fill="none" xmlns="http://www.w3.org/2000/svg">
<path d="M15.5314 5.07561C14.9172 4.98088 14.8911 4.97108 15.1818 4.92861C15.7372 4.84368 17.0438 4.95801 17.9454 5.17034C20.0492 5.66688 21.9634 6.94088 24.0084 9.20468L24.5506 9.80574L25.3281 9.68161C28.6013 9.15894 31.9268 9.57381 34.7132 10.8511C35.4809 11.2039 36.6896 11.9029 36.8366 12.0826C36.8888 12.1414 36.977 12.5073 37.0326 12.9025C37.2416 14.268 37.1404 15.3101 36.719 16.0908C36.4903 16.5155 36.4772 16.6494 36.6308 17.0153C36.7042 17.166 36.8184 17.293 36.9605 17.3819C37.1025 17.4709 37.2667 17.5181 37.4344 17.5183C38.1269 17.5183 38.8717 16.4077 39.2147 14.8593L39.3519 14.2419L39.623 14.5489C41.1159 16.228 42.2854 18.5147 42.4846 20.1415L42.5369 20.5661L42.2886 20.1807C41.9277 19.5903 41.4429 19.0854 40.8676 18.7009C39.868 18.0443 38.8096 17.8189 36.0134 17.6719C33.485 17.5412 32.0542 17.3256 30.6364 16.865C28.2224 16.081 27.0072 15.0422 24.139 11.3051C22.865 9.64241 22.081 8.72448 21.297 7.98621C19.5167 6.30388 17.769 5.42188 15.5314 5.07888V5.07561Z" fill="black"/>
<path d="M37.4115 8.78329C37.4735 7.67262 37.6238 6.93762 37.9309 6.26795C37.9981 6.09871 38.0824 5.93673 38.1824 5.78448C38.1987 5.78448 38.1465 5.98048 38.0648 6.21895C37.8427 6.87228 37.8035 7.76082 37.9603 8.79635C38.1563 10.1096 38.2641 10.299 39.6589 11.7168C40.3155 12.3832 41.0767 13.2194 41.3543 13.582L41.8574 14.2354L41.3543 13.7682C40.7402 13.1966 39.329 12.0794 39.0154 11.9193C38.8063 11.8148 38.7737 11.8148 38.6463 11.9422C38.5254 12.0598 38.5025 12.2362 38.4829 13.0724C38.4601 14.3758 38.2804 15.2121 37.8492 16.0451C37.6173 16.5024 37.5813 16.4044 37.7904 15.8916C37.9472 15.5126 37.9635 15.3428 37.9635 14.0818C37.9635 11.5502 37.6565 10.9393 35.8827 9.90049C35.3476 9.59146 34.7982 9.30803 34.2363 9.05115C33.9594 8.93985 33.6908 8.80885 33.4327 8.65915C33.4817 8.61015 35.213 9.11322 35.9088 9.37782C36.9476 9.77635 37.1175 9.82535 37.2449 9.77962C37.3265 9.74695 37.369 9.50195 37.4082 8.78329H37.4115ZM16.7237 13.1182C15.4791 11.413 14.7049 8.79635 14.8747 6.83962L14.9237 6.23528L15.2079 6.28428C15.7437 6.38228 16.6616 6.72202 17.0928 6.98335C18.2721 7.69548 18.7849 8.63302 19.3043 11.0438C19.4579 11.7494 19.6571 12.5465 19.7486 12.8209C19.8956 13.2554 20.4575 14.2713 20.9115 14.9312C21.2382 15.4081 21.0226 15.6335 20.2974 15.5682C19.19 15.4702 17.6906 14.4412 16.7237 13.1182ZM35.8957 25.8157C30.068 23.4866 28.0165 21.4612 28.0165 18.0476C28.0165 17.5445 28.0329 17.1329 28.0557 17.1329C28.0753 17.1329 28.3007 17.2962 28.5555 17.502C29.7381 18.4428 31.0611 18.8446 34.7263 19.3771C36.8823 19.6907 38.0909 19.9422 39.2114 20.3114C42.7721 21.4841 44.9705 23.8622 45.4965 27.106C45.6467 28.0468 45.5618 29.8108 45.3103 30.7418C45.1143 31.4768 44.5197 32.7998 44.3629 32.8521C44.3172 32.8684 44.2747 32.7018 44.2649 32.4732C44.2061 31.258 43.5855 30.0722 42.5467 29.1836C41.3641 28.1742 39.7765 27.3674 35.8957 25.8157ZM31.8059 26.7859C31.7374 26.3722 31.6436 25.9631 31.5249 25.5609L31.3747 25.1199L31.6523 25.4302C32.0345 25.8549 32.3383 26.4004 32.5931 27.1289C32.7891 27.6842 32.8087 27.8476 32.8087 28.7492C32.8087 29.6344 32.7826 29.8206 32.5997 30.3172C32.3486 31.0535 31.9279 31.7204 31.3714 32.2641C30.3065 33.3421 28.9377 33.9366 26.9614 34.1849C26.6184 34.2274 25.6188 34.2992 24.7401 34.345C22.522 34.4593 21.0618 34.6978 19.7519 35.1551C19.6331 35.2073 19.5058 35.2372 19.3762 35.2433C19.3239 35.191 20.219 34.6618 20.954 34.309C21.9928 33.8092 23.0283 33.5381 25.3477 33.1559C26.491 32.9664 27.6768 32.7345 27.9773 32.643C30.8128 31.7806 32.273 29.5495 31.8059 26.7859Z" fill="black"/>
<path d="M34.478 31.503C33.7038 29.85 33.5242 28.2526 33.9488 26.763C33.9946 26.5997 34.0664 26.4723 34.1122 26.4723C34.1546 26.4723 34.3408 26.5703 34.5172 26.6912C34.8766 26.9296 35.5887 27.3314 37.4964 28.3637C39.8746 29.654 41.2335 30.6504 42.1547 31.7937C42.9616 32.79 43.4613 33.9301 43.7031 35.3152C43.8403 36.0992 43.7586 37.9938 43.5561 38.7844C42.9158 41.2801 41.4328 43.2401 39.3094 44.3834C38.9991 44.55 38.7214 44.6872 38.6887 44.6872C38.6593 44.6872 38.7737 44.403 38.9403 44.0535C39.6557 42.5704 39.7374 41.1298 39.1984 39.5259C38.8652 38.5426 38.1922 37.3438 36.8333 35.3152C35.2522 32.9632 34.8667 32.3327 34.478 31.503ZM12.5848 40.4308C14.7506 38.6145 17.4391 37.3274 19.8924 36.9289C21.1559 36.7669 22.4377 36.8165 23.6849 37.0759C25.2529 37.4744 26.6576 38.3695 27.3861 39.4312C28.0982 40.4732 28.4053 41.3781 28.7254 43.3969C28.8496 44.1907 28.9868 44.991 29.026 45.1707C29.2644 46.216 29.7316 47.0523 30.3065 47.4704C31.2212 48.1368 32.8022 48.1793 34.3539 47.5782C34.515 47.5039 34.6853 47.4512 34.8602 47.4214C34.9158 47.477 34.135 47.9964 33.5862 48.2708C32.9351 48.617 32.2068 48.7923 31.4694 48.7804C30.0484 48.7804 28.8692 48.0617 27.8826 46.5982C27.5208 45.9786 27.1979 45.3371 26.9157 44.6774C25.8769 42.3222 25.364 41.6068 24.1586 40.8195C23.1068 40.1335 21.7511 40.0126 20.7319 40.5092C19.3926 41.1625 19.0202 42.8612 19.9806 43.9392C20.4292 44.4024 21.0162 44.7073 21.6531 44.8081C21.9061 44.8428 22.1635 44.8226 22.408 44.749C22.6525 44.6754 22.8783 44.5501 23.0701 44.3815C23.2619 44.213 23.4152 44.0051 23.5196 43.7721C23.624 43.5391 23.677 43.2864 23.6752 43.031C23.6752 42.3222 23.4008 41.9204 22.7115 41.6068C21.7674 41.1854 20.758 41.6786 20.7613 42.5574C20.7613 42.933 20.9279 43.1682 21.3068 43.3414C21.5486 43.4492 21.5551 43.4557 21.3558 43.4165C20.4934 43.2368 20.2909 42.2013 20.9834 41.5153C21.8197 40.6921 23.5445 41.0547 24.1357 42.1817C24.384 42.6554 24.4134 43.5962 24.1978 44.1646C23.7078 45.4386 22.2966 46.1082 20.8593 45.7424C19.8793 45.4941 19.484 45.2262 18.3048 44.0208C16.2566 41.9236 15.4628 41.5153 12.5097 41.058L11.9413 40.9698L12.5848 40.4308Z" fill="black"/>
<path fill-rule="evenodd" clip-rule="evenodd" d="M2.97434 2.8968C9.81474 11.1484 14.5285 14.5523 15.0512 15.2709C15.4824 15.8655 15.3191 16.4012 14.5808 16.8193C14.0558 17.0831 13.4843 17.2418 12.8985 17.2865C12.4183 17.2865 12.2517 17.1035 12.2517 17.1035C11.974 16.8422 11.8172 16.8879 10.3897 14.3693C9.176 12.4804 7.94769 10.6009 6.70487 8.73106C6.60034 8.63306 6.6036 8.63306 10.1904 15.0129C10.7686 16.3424 10.3047 16.8291 10.3047 17.0186C10.3047 17.4041 10.1969 17.6066 9.72 18.1391C8.92294 19.0211 8.56687 20.0141 8.3088 22.0689C8.02134 24.3719 7.2112 25.9987 4.96374 28.7851C3.65054 30.4152 3.43494 30.7125 3.10174 31.3723C2.6836 32.1988 2.56927 32.6627 2.52354 33.7047C2.47454 34.8121 2.56927 35.5243 2.909 36.5794C3.203 37.5071 3.5166 38.1147 4.3104 39.3365C4.9964 40.3916 5.3884 41.1756 5.3884 41.4827C5.3884 41.7244 5.43414 41.7244 6.49907 41.4859C9.034 40.9175 11.0953 39.9179 12.2549 38.6864C12.9736 37.9253 13.1402 37.5071 13.1467 36.4651C13.15 35.7856 13.1271 35.6419 12.9409 35.2499C12.6404 34.6129 12.0916 34.0804 10.8829 33.2572C9.29534 32.1792 8.61587 31.3135 8.43294 30.1212C8.27614 29.1412 8.4558 28.4519 9.33127 26.6259C10.2394 24.7312 10.4648 23.9243 10.6183 22.0199C10.7163 20.7883 10.8503 20.3016 11.2063 19.9096C11.5787 19.5045 11.9119 19.3673 12.8331 19.2432C14.3325 19.0374 15.2831 18.6552 16.0671 17.9365C16.3814 17.6772 16.6349 17.352 16.8099 16.984C16.9849 16.616 17.077 16.2141 17.0798 15.8067L17.1125 15.1207L16.7303 14.6829C15.355 13.0888 2.05314 1.6424 1.9682 1.6424C1.95187 1.6424 2.40267 2.20753 2.97434 2.8968ZM6.1626 34.9591C6.31247 34.6945 6.35703 34.383 6.2874 34.0869C6.21777 33.7908 6.03906 33.5319 5.78694 33.3617C5.29694 33.0351 4.52927 33.1919 4.52927 33.6133C4.52927 33.7439 4.60114 33.8387 4.76447 33.9203C5.03887 34.0608 5.05847 34.2176 4.84287 34.541C4.624 34.8644 4.6436 35.1486 4.89187 35.3446C5.29367 35.6549 5.86207 35.4851 6.1626 34.9591ZM18.0565 19.6058C17.3542 19.8181 16.6715 20.5597 16.4559 21.3371C16.3285 21.8108 16.4036 22.6438 16.5963 22.8986C16.9099 23.3135 17.2105 23.4213 18.0304 23.418C19.6311 23.4082 21.0227 22.7255 21.186 21.8696C21.3167 21.1705 20.7058 20.2036 19.863 19.7757C19.2905 19.5432 18.6623 19.4842 18.0565 19.6058ZM19.9316 21.0595C20.1766 20.7099 20.0688 20.3343 19.6474 20.0795C18.8503 19.5927 17.6384 19.9945 17.6384 20.7459C17.6384 21.1215 18.2689 21.5299 18.8471 21.5299C19.2325 21.5299 19.7617 21.3012 19.9316 21.0595Z" fill="black"/>
</svg>
