<svg width="52" height="52" viewBox="0 0 52 52" fill="none" xmlns="http://www.w3.org/2000/svg">
<g clip-path="url(#clip0_245_112)">
<path d="M26.3347 51.509C40.1418 51.509 51.3347 40.3162 51.3347 26.509C51.3347 12.7019 40.1418 1.50903 26.3347 1.50903C12.5276 1.50903 1.33472 12.7019 1.33472 26.509C1.33472 40.3162 12.5276 51.509 26.3347 51.509Z" stroke="black" stroke-width="2"/>
<path d="M38.0207 29.828C37.7601 30.0101 37.4548 30.1177 37.1377 30.1392C36.8205 30.1607 36.5035 30.0953 36.2207 29.95C35.5577 29.567 35.1977 28.673 35.1977 27.46V23.73C35.1977 21.937 34.5007 20.666 33.3287 20.318C31.3577 19.732 29.8837 22.186 29.3177 23.109L25.8257 28.847V21.844C25.7857 20.231 25.2717 19.262 24.2887 18.972C23.6437 18.781 22.6717 18.856 21.7287 20.318L13.9247 33.042C12.8814 31.023 12.3417 28.7817 12.3517 26.509C12.3517 18.839 18.3857 12.601 25.8257 12.601C33.2657 12.601 39.3177 18.839 39.3177 26.509V26.59C39.3917 28.07 38.9177 29.253 38.0207 29.828ZM42.3347 26.509V26.434C42.2717 17.092 34.8887 9.50903 25.8257 9.50903C16.7647 9.50903 9.33472 17.133 9.33472 26.509C9.33472 35.885 16.7287 43.509 25.8257 43.509C29.9977 43.509 34.0087 41.884 37.0377 38.972C37.6487 38.386 37.6837 37.411 37.1177 36.784C36.9883 36.6381 36.8311 36.5194 36.6552 36.435C36.4793 36.3506 36.2884 36.3021 36.0936 36.2924C35.8987 36.2827 35.7039 36.312 35.5206 36.3786C35.3372 36.4451 35.169 36.5476 35.0257 36.68L35.0207 36.686C33.759 37.9082 32.2659 38.866 30.629 39.5034C28.9921 40.1408 27.2445 40.4449 25.4885 40.3979C23.7326 40.3508 22.0037 39.9536 20.4033 39.2295C18.8029 38.5054 17.3632 37.469 16.1687 36.181C16.0441 36.0484 15.9224 35.9131 15.8037 35.775L22.8257 24.305V29.595C22.8257 32.137 23.7977 32.961 24.6087 33.205C25.4207 33.448 26.6717 33.28 27.9747 31.127L31.8607 24.745C31.9807 24.542 32.0947 24.362 32.2037 24.211V27.455C32.2037 29.834 33.1407 31.731 34.7917 32.671C35.5392 33.081 36.3843 33.2793 37.2361 33.2446C38.0879 33.2099 38.9141 32.9435 39.6257 32.474C41.4377 31.278 42.4257 29.114 42.3237 26.509H42.3347Z" fill="#17181B"/>
</g>
<defs>
<clipPath id="clip0_245_112">
<rect width="52" height="52" fill="white" transform="translate(0.334717 0.509033)"/>
</clipPath>
</defs>
</svg>
