<svg width="456" height="416" viewBox="0 0 456 416" fill="none" xmlns="http://www.w3.org/2000/svg">
<path fill-rule="evenodd" clip-rule="evenodd" d="M425.777 176.073C421.454 151.015 397.55 134.145 372.491 138.468C361.345 140.391 351.529 146.237 344.49 154.97C311.119 140.922 268.928 135.723 224.47 142.05L235.564 44.8077L304.147 45.6894C304.186 45.9236 304.205 46.1565 304.225 46.3891L304.225 46.3897C304.249 46.6938 304.274 46.9976 304.344 47.3038C307.879 62.9798 323.505 72.8555 339.182 69.3202C354.858 65.7851 364.734 50.1574 361.199 34.4822C357.664 18.8062 342.037 8.9305 326.361 12.4657C316.239 14.7482 308.608 22.096 305.37 31.2191L305.344 31.2136L222.699 30.1522L209.597 144.589C165.461 153.421 127.312 172.408 100.441 196.812C90.9541 191.093 79.8735 188.951 68.8529 190.852C43.7959 195.175 26.9245 219.08 31.2477 244.139C33.9216 259.637 44.3664 272.553 58.7257 278.662C58.7229 283.333 59.0693 288.015 59.8758 292.69C71.1925 358.285 159.915 397.937 257.661 381.074C355.406 364.211 425.712 297.121 414.396 231.527C413.613 226.987 412.424 222.587 410.922 218.306C422.771 207.741 428.493 191.816 425.777 176.073ZM139.646 266.183C133.877 262.111 132.5 254.134 136.572 248.365C140.643 242.595 148.621 241.219 154.39 245.291L167.802 254.756L177.267 241.344C181.339 235.574 189.316 234.198 195.086 238.27C200.855 242.341 202.231 250.319 198.16 256.088L188.695 269.5L202.106 278.965C207.876 283.037 209.252 291.014 205.181 296.783C201.109 302.553 193.132 303.929 187.362 299.857L173.95 290.392L164.485 303.804C160.414 309.574 152.436 310.95 146.667 306.878C140.897 302.807 139.521 294.829 143.593 289.06L153.058 275.648L139.646 266.183ZM272.891 243.195C267.122 239.124 265.745 231.146 269.817 225.377C273.888 219.607 281.866 218.231 287.635 222.303L301.047 231.768L310.512 218.356C314.584 212.587 322.561 211.21 328.331 215.282C334.1 219.353 335.476 227.331 331.405 233.1L321.939 246.512L335.351 255.977C341.121 260.049 342.497 268.026 338.426 273.796C334.354 279.565 326.376 280.941 320.607 276.87L307.195 267.404L297.73 280.816C293.659 286.586 285.681 287.962 279.912 283.89C274.142 279.819 272.766 271.841 276.838 266.072L286.303 252.66L272.891 243.195Z" fill="#FF0000"/>
</svg>
