<svg width="65" height="46" viewBox="0 0 65 46" fill="none" xmlns="http://www.w3.org/2000/svg">
<path fill-rule="evenodd" clip-rule="evenodd" d="M56.9804 21.1405C61.0466 21.1405 64.3548 24.4488 64.3548 28.5149C64.3548 31.0694 63.0201 33.4233 60.8657 34.7661C60.9861 35.4815 61.0538 36.2071 61.0538 36.9438C61.0538 39.924 60.0423 42.7486 58.2377 45.2713H6.34222C4.53757 42.7487 3.52612 39.924 3.52612 36.9438C3.52612 36.1852 3.59883 35.4381 3.72623 34.7022C1.6296 33.3491 0.334839 31.0299 0.334839 28.5149C0.334839 24.4487 3.64328 21.1405 7.70927 21.1405C9.49757 21.1405 11.1854 21.7792 12.5249 22.9384C17.4226 19.8233 23.9503 17.8685 31.1453 17.6767L36.321 0L49.3153 2.41403L49.3191 2.41559C50.0773 1.06601 51.4797 0.115608 53.1367 0.0311056C55.703 -0.0997961 57.897 1.88123 58.0279 4.44755C58.1588 7.01374 56.1776 9.20783 53.6114 9.33873C51.045 9.46964 48.851 7.48861 48.7201 4.92229C48.7175 4.87217 48.7219 4.82363 48.7262 4.77504C48.7295 4.73782 48.7329 4.70057 48.7331 4.66256L37.9498 2.65912L33.5579 17.6808C40.7356 17.8926 47.2427 19.8588 52.1194 22.9796C53.466 21.7949 55.1716 21.1405 56.9804 21.1405ZM16.8169 32.6491C16.0184 31.8507 16.0184 30.5562 16.8169 29.7578C17.6153 28.9593 18.9098 28.9593 19.7082 29.7578L21.5643 31.6138L23.4204 29.7578C24.2188 28.9593 25.5133 28.9593 26.3117 29.7578C27.1102 30.5562 27.1102 31.8507 26.3117 32.6491L24.4557 34.5052L26.3119 36.3614C27.1103 37.1598 27.1103 38.4543 26.3119 39.2527C25.5134 40.0512 24.2189 40.0512 23.4205 39.2527L21.5643 37.3966L19.7081 39.2527C18.9097 40.0512 17.6152 40.0512 16.8168 39.2527C16.0183 38.4543 16.0183 37.1598 16.8168 36.3614L18.6729 34.5052L16.8169 32.6491ZM38.4383 32.649C37.6399 31.8506 37.6399 30.5561 38.4383 29.7577C39.2367 28.9592 40.5313 28.9592 41.3297 29.7577L43.1858 31.6137L45.0418 29.7577C45.8403 28.9592 47.1348 28.9592 47.9332 29.7577C48.7316 30.5561 48.7316 31.8506 47.9332 32.649L46.0771 34.5051L47.9333 36.3613C48.7317 37.1597 48.7317 38.4542 47.9333 39.2526C47.1349 40.0511 45.8404 40.0511 45.0419 39.2526L43.1858 37.3965L41.3296 39.2526C40.5312 40.0511 39.2366 40.0511 38.4382 39.2526C37.6398 38.4542 37.6398 37.1597 38.4382 36.3613L40.2944 34.5051L38.4383 32.649Z" fill="#FF0000"/>
</svg>
