<svg width="49" height="49" viewBox="0 0 49 49" fill="none" xmlns="http://www.w3.org/2000/svg">
<path d="M24.335 0.589111C37.5462 0.589111 48.255 11.298 48.255 24.5091C48.255 37.7202 37.5462 48.4291 24.335 48.4291C11.1239 48.4291 0.415039 37.7202 0.415039 24.5091C0.415039 11.298 11.1239 0.589111 24.335 0.589111ZM32.5864 34.2591C33.0263 32.9092 35.0876 19.4557 35.3424 16.8048C35.4194 16.0019 35.1656 15.4684 34.6685 15.2302C34.0674 14.9411 33.1771 15.0857 32.1444 15.458C30.7279 15.9686 12.6194 23.6574 11.5732 24.1025C10.581 24.5237 9.64296 24.9834 9.64296 25.649C9.64296 26.117 9.92064 26.3801 10.6861 26.6536C11.4827 26.9375 13.4889 27.5459 14.6734 27.8725C15.8143 28.1876 17.1133 27.9141 17.8413 27.4617C18.613 26.9822 27.5185 21.023 28.1581 20.5009C28.7966 19.9789 29.3062 20.6476 28.7842 21.1707C28.2621 21.6928 22.149 27.626 21.343 28.4476C20.3643 29.445 21.059 30.4787 21.7153 30.8926C22.4651 31.3648 27.8575 34.9819 28.6698 35.5622C29.482 36.1425 30.3057 36.4057 31.0597 36.4057C31.8137 36.4057 32.211 35.4125 32.5864 34.2591Z" fill="black"/>
</svg>
