<svg width="52" height="52" viewBox="0 0 52 52" fill="none" xmlns="http://www.w3.org/2000/svg">
<g clip-path="url(#clip0_245_115)">
<path d="M26.335 51.509C40.1421 51.509 51.335 40.3162 51.335 26.509C51.335 12.7019 40.1421 1.50903 26.335 1.50903C12.5278 1.50903 1.33496 12.7019 1.33496 26.509C1.33496 40.3162 12.5278 51.509 26.335 51.509Z" stroke="black" stroke-width="2"/>
<path d="M44.335 15.06C42.9902 15.6721 41.5596 16.0745 40.093 16.253C41.6458 15.2943 42.7991 13.806 43.34 12.063C41.8948 12.9432 40.3074 13.5651 38.649 13.901C37.9667 13.1489 37.1348 12.5476 36.2066 12.1357C35.2784 11.7238 34.2744 11.5103 33.259 11.509C29.179 11.509 25.873 14.901 25.873 19.082C25.873 19.676 25.94 20.255 26.064 20.808C19.927 20.492 14.485 17.477 10.841 12.893C10.1838 14.0551 9.83985 15.368 9.84296 16.703C9.84296 19.33 11.146 21.648 13.127 23.006C11.9515 22.9668 10.8033 22.6414 9.78196 22.058V22.154C9.78196 25.824 12.327 28.885 15.707 29.579C14.6205 29.8828 13.4779 29.9277 12.371 29.71C13.311 32.719 16.039 34.91 19.271 34.97C17.7515 36.1993 16.0003 37.1106 14.1217 37.6497C12.243 38.1888 10.2751 38.3446 8.33496 38.108C11.6939 40.3271 15.6312 41.5098 19.657 41.509C33.242 41.509 40.669 29.969 40.669 19.959C40.669 19.632 40.662 19.305 40.648 18.98C42.0997 17.9023 43.3481 16.575 44.335 15.06Z" fill="black"/>
</g>
<defs>
<clipPath id="clip0_245_115">
<rect width="52" height="52" fill="white" transform="translate(0.334961 0.509033)"/>
</clipPath>
</defs>
</svg>
